<svg width="16" height="16" viewBox="0 0 16 16" fill="none" xmlns="http://www.w3.org/2000/svg">
<path d="M1.5 8.50623C1.5 9.57362 2.24894 10.5027 3.30497 10.658C4.01699 10.7627 4.73663 10.8439 5.46309 10.9009C5.77428 10.9253 6.05886 11.0883 6.232 11.348L8 14L9.76797 11.348C9.94112 11.0883 10.2257 10.9253 10.5369 10.9009C11.2633 10.844 11.983 10.7627 12.695 10.6581C13.751 10.5028 14.5 9.5737 14.5 8.5063V4.4937C14.5 3.42631 13.751 2.49722 12.695 2.34196C11.1627 2.11668 9.59507 2 8.00019 2C6.40517 2 4.83741 2.1167 3.30498 2.34202C2.24894 2.49729 1.5 3.42637 1.5 4.49376V8.50623Z" stroke="black" stroke-opacity="0.87" stroke-linecap="round" stroke-linejoin="round"/>
</svg>
