<svg width="162" height="32" viewBox="0 0 162 32" fill="none" xmlns="http://www.w3.org/2000/svg">
<rect x="0.5" y="0.5" width="57" height="31" rx="15.5" stroke="black" stroke-opacity="0.87"/>
<path d="M15.9716 11.2727V20H14.9148V12.3807H14.8636L12.733 13.7955V12.7216L14.9148 11.2727H15.9716ZM18.295 18.2102V17.3409L22.1302 11.2727H22.7609V12.6193H22.3348L19.437 17.2045V17.2727H24.6018V18.2102H18.295ZM22.4029 20V17.946V17.5412V11.2727H23.4086V20H22.4029Z" fill="black" fill-opacity="0.87"/>
<path d="M31.5 16.5062C31.5 17.5736 32.2489 18.5027 33.305 18.658C34.017 18.7627 34.7366 18.8439 35.4631 18.9009C35.7743 18.9253 36.0589 19.0883 36.232 19.348L38 22L39.768 19.348C39.9411 19.0883 40.2257 18.9253 40.5369 18.9009C41.2633 18.844 41.983 18.7627 42.695 18.6581C43.751 18.5028 44.5 17.5737 44.5 16.5063V12.4937C44.5 11.4263 43.751 10.4972 42.695 10.342C41.1627 10.1167 39.5951 10 38.0002 10C36.4052 10 34.8374 10.1167 33.305 10.342C32.2489 10.4973 31.5 11.4264 31.5 12.4938V16.5062Z" stroke="black" stroke-opacity="0.87" stroke-linecap="round" stroke-linejoin="round"/>
<rect x="66.5" y="0.5" width="95" height="31" rx="15.5" stroke="black" stroke-opacity="0.87"/>
<path d="M78.6989 18.2102V17.3409L82.5341 11.2727H83.1648V12.6193H82.7386L79.8409 17.2045V17.2727H85.0057V18.2102H78.6989ZM82.8068 20V17.946V17.5412V11.2727H83.8125V20H82.8068ZM86.9605 20.0682C86.7502 20.0682 86.5698 19.9929 86.4193 19.8423C86.2687 19.6918 86.1934 19.5114 86.1934 19.3011C86.1934 19.0909 86.2687 18.9105 86.4193 18.7599C86.5698 18.6094 86.7502 18.5341 86.9605 18.5341C87.1707 18.5341 87.3511 18.6094 87.5017 18.7599C87.6522 18.9105 87.7275 19.0909 87.7275 19.3011C87.7275 19.4403 87.692 19.5682 87.621 19.6847C87.5528 19.8011 87.4605 19.8949 87.344 19.9659C87.2304 20.0341 87.1025 20.0682 86.9605 20.0682ZM92.1262 20.1193C91.7682 20.1136 91.4103 20.0455 91.0523 19.9148C90.6944 19.7841 90.3677 19.5639 90.0722 19.2543C89.7768 18.9418 89.5396 18.5199 89.3606 17.9886C89.1816 17.4545 89.0921 16.7841 89.0921 15.9773C89.0921 15.2045 89.1646 14.5199 89.3094 13.9233C89.4543 13.3239 89.6646 12.8196 89.9401 12.4105C90.2157 11.9986 90.5481 11.6861 90.9373 11.473C91.3293 11.2599 91.7711 11.1534 92.2626 11.1534C92.7512 11.1534 93.1859 11.2514 93.5665 11.4474C93.9501 11.6406 94.2626 11.9105 94.504 12.2571C94.7455 12.6037 94.9018 13.0028 94.9728 13.4545H93.933C93.8364 13.0625 93.6489 12.7372 93.3705 12.4787C93.0921 12.2202 92.7228 12.0909 92.2626 12.0909C91.5864 12.0909 91.0538 12.3849 90.6646 12.973C90.2782 13.5611 90.0836 14.3864 90.0807 15.4489H90.1489C90.308 15.2074 90.4969 15.0014 90.7157 14.831C90.9373 14.6577 91.1816 14.5241 91.4486 14.4304C91.7157 14.3366 91.9984 14.2898 92.2967 14.2898C92.7967 14.2898 93.254 14.4148 93.6688 14.6648C94.0836 14.9119 94.416 15.2543 94.666 15.6918C94.916 16.1264 95.041 16.625 95.041 17.1875C95.041 17.7273 94.9202 18.2216 94.6788 18.6705C94.4373 19.1165 94.0978 19.4716 93.6603 19.7358C93.2256 19.9972 92.7143 20.125 92.1262 20.1193ZM92.1262 19.1818C92.4842 19.1818 92.8052 19.0923 93.0893 18.9134C93.3762 18.7344 93.6021 18.4943 93.7668 18.1932C93.9344 17.892 94.0182 17.5568 94.0182 17.1875C94.0182 16.8267 93.9373 16.4986 93.7753 16.2031C93.6163 15.9048 93.3961 15.6676 93.1148 15.4915C92.8364 15.3153 92.5182 15.2273 92.1603 15.2273C91.8904 15.2273 91.639 15.2812 91.406 15.3892C91.1731 15.4943 90.9685 15.6392 90.7924 15.8239C90.6191 16.0085 90.4827 16.2202 90.3833 16.4588C90.2839 16.6946 90.2342 16.9432 90.2342 17.2045C90.2342 17.5511 90.3151 17.875 90.4771 18.1761C90.6418 18.4773 90.8663 18.7202 91.1503 18.9048C91.4373 19.0895 91.7626 19.1818 92.1262 19.1818Z" fill="black" fill-opacity="0.87"/>
<path d="M107.654 10.3325C107.782 10.0245 108.218 10.0245 108.346 10.3325L109.764 13.7401C109.818 13.87 109.94 13.9587 110.08 13.9699L113.759 14.2648C114.091 14.2915 114.226 14.7064 113.973 14.9234L111.17 17.3244C111.063 17.4159 111.016 17.5594 111.049 17.6962L111.905 21.2861C111.983 21.6106 111.63 21.867 111.345 21.6932L108.196 19.7694C108.076 19.6961 107.925 19.6961 107.805 19.7694L104.655 21.6932C104.37 21.867 104.017 21.6106 104.095 21.2861L104.951 17.6962C104.984 17.5594 104.937 17.4159 104.83 17.3244L102.027 14.9234C101.774 14.7064 101.909 14.2915 102.241 14.2648L105.92 13.9699C106.06 13.9587 106.183 13.87 106.237 13.7401L107.654 10.3325Z" stroke="black" stroke-opacity="0.87" stroke-linecap="round" stroke-linejoin="round"/>
<path d="M121.278 15.6364C121.278 14.5625 121.418 13.5753 121.696 12.6747C121.977 11.7713 122.378 10.9403 122.898 10.1818H123.784C123.58 10.4631 123.388 10.8097 123.209 11.2216C123.033 11.6307 122.878 12.081 122.744 12.5724C122.611 13.0611 122.506 13.5668 122.429 14.0895C122.355 14.6122 122.318 15.1278 122.318 15.6364C122.318 16.3125 122.384 16.9986 122.514 17.6946C122.645 18.3906 122.821 19.0369 123.043 19.6335C123.264 20.2301 123.511 20.7159 123.784 21.0909H122.898C122.378 20.3324 121.977 19.5028 121.696 18.6023C121.418 17.6989 121.278 16.7102 121.278 15.6364ZM128.337 11.2727V20H127.28V12.3807H127.229L125.099 13.7955V12.7216L127.28 11.2727H128.337ZM133.763 20.1193C133.405 20.1136 133.047 20.0455 132.689 19.9148C132.331 19.7841 132.004 19.5639 131.709 19.2543C131.413 18.9418 131.176 18.5199 130.997 17.9886C130.818 17.4545 130.729 16.7841 130.729 15.9773C130.729 15.2045 130.801 14.5199 130.946 13.9233C131.091 13.3239 131.301 12.8196 131.577 12.4105C131.852 11.9986 132.185 11.6861 132.574 11.473C132.966 11.2599 133.408 11.1534 133.899 11.1534C134.388 11.1534 134.823 11.2514 135.203 11.4474C135.587 11.6406 135.899 11.9105 136.141 12.2571C136.382 12.6037 136.538 13.0028 136.61 13.4545H135.57C135.473 13.0625 135.286 12.7372 135.007 12.4787C134.729 12.2202 134.36 12.0909 133.899 12.0909C133.223 12.0909 132.69 12.3849 132.301 12.973C131.915 13.5611 131.72 14.3864 131.717 15.4489H131.786C131.945 15.2074 132.134 15.0014 132.352 14.831C132.574 14.6577 132.818 14.5241 133.085 14.4304C133.352 14.3366 133.635 14.2898 133.933 14.2898C134.433 14.2898 134.891 14.4148 135.306 14.6648C135.72 14.9119 136.053 15.2543 136.303 15.6918C136.553 16.1264 136.678 16.625 136.678 17.1875C136.678 17.7273 136.557 18.2216 136.315 18.6705C136.074 19.1165 135.735 19.4716 135.297 19.7358C134.862 19.9972 134.351 20.125 133.763 20.1193ZM133.763 19.1818C134.121 19.1818 134.442 19.0923 134.726 18.9134C135.013 18.7344 135.239 18.4943 135.404 18.1932C135.571 17.892 135.655 17.5568 135.655 17.1875C135.655 16.8267 135.574 16.4986 135.412 16.2031C135.253 15.9048 135.033 15.6676 134.752 15.4915C134.473 15.3153 134.155 15.2273 133.797 15.2273C133.527 15.2273 133.276 15.2812 133.043 15.3892C132.81 15.4943 132.605 15.6392 132.429 15.8239C132.256 16.0085 132.119 16.2202 132.02 16.4588C131.921 16.6946 131.871 16.9432 131.871 17.2045C131.871 17.5511 131.952 17.875 132.114 18.1761C132.279 18.4773 132.503 18.7202 132.787 18.9048C133.074 19.0895 133.399 19.1818 133.763 19.1818ZM141.099 20.1193C140.599 20.1193 140.148 20.0199 139.748 19.821C139.347 19.6222 139.026 19.3494 138.785 19.0028C138.543 18.6562 138.411 18.2614 138.389 17.8182H139.411C139.451 18.2131 139.63 18.5398 139.948 18.7983C140.269 19.054 140.653 19.1818 141.099 19.1818C141.457 19.1818 141.775 19.098 142.053 18.9304C142.335 18.7628 142.555 18.5327 142.714 18.2401C142.876 17.9446 142.957 17.6108 142.957 17.2386C142.957 16.858 142.873 16.5185 142.705 16.2202C142.541 15.919 142.313 15.6818 142.023 15.5085C141.734 15.3352 141.403 15.2472 141.031 15.2443C140.764 15.2415 140.489 15.2827 140.208 15.3679C139.927 15.4503 139.695 15.5568 139.514 15.6875L138.525 15.5682L139.053 11.2727H143.587V12.2102H139.94L139.633 14.7841H139.684C139.863 14.642 140.087 14.5241 140.357 14.4304C140.627 14.3366 140.908 14.2898 141.201 14.2898C141.735 14.2898 142.211 14.4176 142.629 14.6733C143.049 14.9261 143.379 15.2727 143.617 15.7131C143.859 16.1534 143.979 16.6562 143.979 17.2216C143.979 17.7784 143.854 18.2756 143.604 18.7131C143.357 19.1477 143.016 19.4915 142.582 19.7443C142.147 19.9943 141.653 20.1193 141.099 20.1193ZM147.855 15.6364C147.855 16.7102 147.714 17.6989 147.433 18.6023C147.155 19.5028 146.756 20.3324 146.236 21.0909H145.349C145.554 20.8097 145.744 20.4631 145.92 20.0511C146.099 19.642 146.256 19.1932 146.389 18.7045C146.523 18.2131 146.626 17.706 146.7 17.1832C146.777 16.6577 146.815 16.142 146.815 15.6364C146.815 14.9602 146.75 14.2741 146.619 13.5781C146.489 12.8821 146.312 12.2358 146.091 11.6392C145.869 11.0426 145.622 10.5568 145.349 10.1818H146.236C146.756 10.9403 147.155 11.7713 147.433 12.6747C147.714 13.5753 147.855 14.5625 147.855 15.6364Z" fill="black" fill-opacity="0.87"/>
</svg>
