<svg width="112" height="24" viewBox="0 0 112 24" fill="none" xmlns="http://www.w3.org/2000/svg">
<path d="M22 21L16.8033 15.8033M16.8033 15.8033C18.1605 14.4461 19 12.5711 19 10.5C19 6.35786 15.6421 3 11.5 3C7.35786 3 4 6.35786 4 10.5C4 14.6421 7.35786 18 11.5 18C13.5711 18 15.4461 17.1605 16.8033 15.8033Z" stroke="white" stroke-width="1.5" stroke-linecap="round" stroke-linejoin="round"/>
<path d="M61.5933 3.32241C62.6939 3.45014 63.5 4.399 63.5 5.50699V21L56 17.25L48.5 21V5.50699C48.5 4.399 49.3061 3.45014 50.4067 3.32241C52.2416 3.10947 54.108 3 56 3C57.892 3 59.7584 3.10947 61.5933 3.32241Z" stroke="white" stroke-width="1.5" stroke-linecap="round" stroke-linejoin="round"/>
<path d="M103.625 10.5V6C103.625 3.92893 101.947 2.25 99.8755 2.25C97.8044 2.25 96.1255 3.92893 96.1255 6V10.5M107.482 8.50723L108.745 20.5072C108.815 21.1715 108.294 21.75 107.626 21.75H92.1251C91.4572 21.75 90.9364 21.1715 91.0063 20.5072L92.2695 8.50723C92.3297 7.93466 92.8126 7.5 93.3883 7.5H106.363C106.938 7.5 107.421 7.93466 107.482 8.50723ZM96.5005 10.5C96.5005 10.7071 96.3326 10.875 96.1255 10.875C95.9184 10.875 95.7505 10.7071 95.7505 10.5C95.7505 10.2929 95.9184 10.125 96.1255 10.125C96.3326 10.125 96.5005 10.2929 96.5005 10.5ZM104 10.5C104 10.7071 103.833 10.875 103.625 10.875C103.418 10.875 103.25 10.7071 103.25 10.5C103.25 10.2929 103.418 10.125 103.625 10.125C103.833 10.125 104 10.2929 104 10.5Z" stroke="white" stroke-width="1.5" stroke-linecap="round" stroke-linejoin="round"/>
</svg>
