<svg width="104" height="24" viewBox="0 0 104 24" fill="none" xmlns="http://www.w3.org/2000/svg">
<path d="M12.3309 4.61684C14.7362 4.61684 15.015 4.6248 15.9628 4.67259C16.8389 4.71241 17.3168 4.85578 17.6354 4.98321C18.0575 5.14251 18.3522 5.34163 18.6708 5.65225C18.9894 5.97084 19.1805 6.26553 19.3398 6.68766C19.4593 7.00625 19.6106 7.48413 19.6504 8.36025C19.6903 9.30805 19.7062 9.59479 19.7062 11.9922C19.7062 14.3895 19.6982 14.6763 19.6504 15.6241C19.6106 16.5002 19.4672 16.9781 19.3398 17.2967C19.1805 17.7188 18.9814 18.0135 18.6708 18.3321C18.3601 18.6507 18.0575 18.8418 17.6354 19.0011C17.3168 19.1206 16.8389 19.2719 15.9628 19.3117C15.015 19.3516 14.7282 19.3675 12.3309 19.3675C9.93347 19.3675 9.64674 19.3595 8.69894 19.3117C7.82282 19.2719 7.34494 19.1286 7.02635 19.0011C6.60422 18.8418 6.30952 18.6427 5.99094 18.3321C5.67235 18.0135 5.48119 17.7188 5.3219 17.2967C5.20243 16.9781 5.0511 16.5002 5.01128 15.6241C4.97145 14.6763 4.95552 14.3895 4.95552 11.9922C4.95552 9.59479 4.96349 9.30805 5.01128 8.36025C5.0511 7.48413 5.19446 7.00625 5.3219 6.68766C5.48119 6.26553 5.68031 5.97084 5.99094 5.65225C6.30952 5.33366 6.60422 5.14251 7.02635 4.98321C7.34494 4.86374 7.82282 4.71241 8.69894 4.67259C9.64674 4.63277 9.93347 4.61684 12.3309 4.61684ZM12.3309 3C9.88568 3 9.58302 3.00796 8.61929 3.05575C7.66353 3.09558 7.01042 3.25487 6.43696 3.47788C5.84757 3.70886 5.34579 4.01152 4.84402 4.5133C4.34224 5.01508 4.03958 5.51685 3.8086 6.10624C3.58559 6.6797 3.43426 7.33281 3.39444 8.28857C3.34665 9.24434 3.33868 9.55496 3.33868 12.0001C3.33868 14.4453 3.34665 14.748 3.39444 15.7117C3.43426 16.6675 3.59356 17.3206 3.8086 17.894C4.03958 18.4834 4.34224 18.9852 4.84402 19.487C5.34579 19.9887 5.84757 20.2914 6.43696 20.5224C7.01042 20.7454 7.66353 20.8967 8.61929 20.9445C9.57506 20.9843 9.88568 21.0003 12.3309 21.0003C14.776 21.0003 15.0787 20.9923 16.0424 20.9445C16.9982 20.9047 17.6513 20.7454 18.2247 20.5224C18.8141 20.2914 19.3159 19.9887 19.8177 19.487C20.3195 18.9852 20.6221 18.4834 20.8531 17.894C21.0761 17.3206 21.2274 16.6675 21.2673 15.7117C21.3071 14.7559 21.323 14.4453 21.323 12.0001C21.323 9.55496 21.3151 9.2523 21.2673 8.28857C21.2274 7.33281 21.0681 6.6797 20.8531 6.10624C20.6221 5.51685 20.3195 5.01508 19.8177 4.5133C19.3159 4.01152 18.8141 3.70886 18.2247 3.47788C17.6513 3.25487 16.9982 3.10354 16.0424 3.05575C15.0866 3.01593 14.776 3 12.3309 3Z" fill="white"/>
<path d="M12.3308 7.37268C9.78213 7.37268 7.7113 9.44351 7.7113 11.9922C7.7113 14.5409 9.78213 16.6118 12.3308 16.6118C14.8796 16.6118 16.9504 14.5409 16.9504 11.9922C16.9504 9.44351 14.8796 7.37268 12.3308 7.37268ZM12.3308 14.9869C10.6742 14.9869 9.33611 13.6409 9.33611 11.9922C9.33611 10.3435 10.6821 8.99748 12.3308 8.99748C13.9795 8.99748 15.3256 10.3435 15.3256 11.9922C15.3256 13.6409 13.9795 14.9869 12.3308 14.9869Z" fill="white"/>
<path d="M18.2088 7.1894C18.2088 7.78676 17.7229 8.27261 17.1256 8.27261C16.5282 8.27261 16.0424 7.78676 16.0424 7.1894C16.0424 6.59205 16.5282 6.1062 17.1256 6.1062C17.7229 6.1062 18.2088 6.59205 18.2088 7.1894Z" fill="white"/>
<path d="M49.3955 20.9931H53.0172V11.9134H55.5474L55.8149 8.87723H53.0172V7.14948C53.0172 6.43381 53.1618 6.15187 53.8558 6.15187H55.8149V3H53.3064C50.6099 3 49.3955 4.18557 49.3955 6.46272V8.88446H47.5087V11.964H49.3955V21.0004V20.9931Z" fill="white"/>
<path d="M83.354 17.4147C84.9156 18.4191 86.7755 18.9999 88.7687 18.9999C95.3292 18.9999 99.0332 13.4596 98.8135 8.48427C99.504 7.98988 100.1 7.36208 100.579 6.65581C99.9435 6.93832 99.2608 7.12666 98.5466 7.21299C99.2765 6.77353 99.8336 6.08295 100.1 5.25897C99.4177 5.66703 98.6644 5.95739 97.8561 6.11434C97.2126 5.42377 96.2944 5 95.2743 5C92.9907 5 91.3191 7.12666 91.8292 9.33964C88.8943 9.19054 86.2889 7.78585 84.5468 5.6435C83.6208 7.22868 84.0681 9.30825 85.6376 10.3598C85.0569 10.3441 84.5154 10.1793 84.0367 9.92035C83.9975 11.5605 85.1746 13.0907 86.8696 13.4282C86.3752 13.5616 85.8259 13.593 85.2766 13.4909C85.7239 14.8956 87.0344 15.9158 88.5804 15.9472C87.0972 17.1086 85.2217 17.6344 83.3461 17.4068L83.354 17.4147Z" fill="white"/>
</svg>
