<svg width="16" height="16" viewBox="0 0 16 16" fill="none" xmlns="http://www.w3.org/2000/svg">
<path d="M7.65383 2.33247C7.78193 2.02449 8.21822 2.02449 8.34632 2.33247L9.76364 5.74011C9.81764 5.86995 9.93975 5.95866 10.0799 5.9699L13.7587 6.26483C14.0912 6.29148 14.2261 6.70642 13.9727 6.92343L11.1699 9.32439C11.0631 9.41587 11.0164 9.55942 11.049 9.6962L11.9054 13.2861C11.9828 13.6106 11.6298 13.867 11.3451 13.6931L8.19555 11.7694C8.07554 11.6961 7.92461 11.6961 7.80461 11.7694L4.65501 13.6931C4.37035 13.867 4.01738 13.6106 4.09478 13.2861L4.9511 9.6962C4.98373 9.55942 4.93709 9.41587 4.8303 9.32439L2.02742 6.92343C1.77409 6.70642 1.90891 6.29148 2.24141 6.26483L5.92024 5.9699C6.06041 5.95866 6.18251 5.86995 6.23652 5.74011L7.65383 2.33247Z" stroke="black" stroke-opacity="0.87" stroke-linecap="round" stroke-linejoin="round"/>
</svg>
